<svg xmlns="http://www.w3.org/2000/svg" width="40" height="40" viewBox="0 0 40 40">
    <g fill="#81858B">
        <path d="M35 0c2.689 0 4.882 2.122 4.995 4.783L40 5v30c0 2.689-2.122 4.882-4.783 4.995L35 40H5C2.311 40 .118 37.878.005 35.217L0 35V5C0 2.311 2.122.118 4.783.005L5 0h30zm0 2H5C3.402 2 2.096 3.249 2.005 4.824L2 5v30c0 1.598 1.249 2.904 2.824 2.995L5 38h30c1.598 0 2.904-1.249 2.995-2.824L38 35V5c0-1.598-1.249-2.904-2.824-2.995L35 2z"/>
        <path d="M33.333 4H6.667c-1.42 0-2.581 1.11-2.662 2.51L4 6.667v26.666c0 1.42 1.11 2.581 2.51 2.662l.157.005h26.666c1.42 0 2.581-1.11 2.662-2.51l.005-.157V6.667c0-1.42-1.11-2.581-2.51-2.662L33.333 4z" opacity=".204"/>
    </g>
</svg>
