<svg xmlns="http://www.w3.org/2000/svg" width="40" height="40" viewBox="0 0 40 40">
    <g fill="none" fill-rule="evenodd">
        <g fill="#81858B" fill-rule="nonzero">
            <g>
                <g>
                    <path d="M55 20c2.689 0 4.882 2.122 4.995 4.783L60 25v30c0 2.689-2.122 4.882-4.783 4.995L55 60H25c-2.689 0-4.882-2.122-4.995-4.783L20 55V25c0-2.689 2.122-4.882 4.783-4.995L25 20h30zm0 2H25c-1.598 0-2.904 1.249-2.995 2.824L22 25v30c0 1.598 1.249 2.904 2.824 2.995L25 58h30c1.598 0 2.904-1.249 2.995-2.824L58 55V25c0-1.598-1.249-2.904-2.824-2.995L55 22zm-27 5c.513 0 .936.386.993.883L29 28v24c0 .552-.448 1-1 1-.513 0-.936-.386-.993-.883L27 52V28c0-.552.448-1 1-1zm6 0c.513 0 .936.386.993.883L35 28v24c0 .552-.448 1-1 1-.513 0-.936-.386-.993-.883L33 52V28c0-.552.448-1 1-1zm6 0c.513 0 .936.386.993.883L41 28v24c0 .552-.448 1-1 1-.513 0-.936-.386-.993-.883L39 52V28c0-.552.448-1 1-1zm6 0c.513 0 .936.386.993.883L47 28v24c0 .552-.448 1-1 1-.513 0-.936-.386-.993-.883L45 52V28c0-.552.448-1 1-1zm6 0c.513 0 .936.386.993.883L53 28v24c0 .552-.448 1-1 1-.513 0-.936-.386-.993-.883L51 52V28c0-.552.448-1 1-1z" transform="translate(-560 -938) translate(160 764) translate(380 154)"/>
                </g>
            </g>
        </g>
    </g>
</svg>
