<svg xmlns="http://www.w3.org/2000/svg" width="40" height="40" viewBox="0 0 40 40">
    <path fill="#81858B" d="M29 38c.552 0 1 .448 1 1 0 .513-.386.936-.883.993L29 40h-4c-.552 0-1-.448-1-1 0-.513.386-.936.883-.993L25 38h4zm8 0c.552 0 1 .448 1 1 0 .513-.386.936-.883.993L37 40h-4c-.552 0-1-.448-1-1 0-.513.386-.936.883-.993L33 38h4zm-16 0c.552 0 1 .448 1 1 0 .513-.386.936-.883.993L21 40h-4c-.552 0-1-.448-1-1 0-.513.386-.936.883-.993L17 38h4zm-8 0c.552 0 1 .448 1 1 0 .513-.386.936-.883.993L13 40H9c-.552 0-1-.448-1-1 0-.513.386-.936.883-.993L9 38h4zm26-7c.513 0 .936.386.993.883L40 32v4c0 .552-.448 1-1 1-.513 0-.936-.386-.993-.883L38 36v-4c0-.552.448-1 1-1zm0-8c.513 0 .936.386.993.883L40 24v4c0 .552-.448 1-1 1-.513 0-.936-.386-.993-.883L38 28v-4c0-.552.448-1 1-1zm0-8c.513 0 .936.386.993.883L40 16v4c0 .552-.448 1-1 1-.513 0-.936-.386-.993-.883L38 20v-4c0-.552.448-1 1-1zm0-8c.513 0 .936.386.993.883L40 8v4c0 .552-.448 1-1 1-.513 0-.936-.386-.993-.883L38 12V8c0-.552.448-1 1-1zm1-7v3.969c0 .552-.448 1-1 1-.513 0-.936-.386-.993-.884L38 3.97V2.014l-.221.006C18.315 2.65 2.65 18.315 2.019 37.779L2.015 38h2.955c.513 0 .935.386.993.883l.007.117c0 .513-.386.936-.884.993L4.97 40H0v-1C0 17.676 17.113.35 38.355.005L39 0h1z"/>
</svg>
