<svg xmlns="http://www.w3.org/2000/svg" width="40" height="40" viewBox="0 0 40 40">
    <path fill="#81858B" d="M35 0c2.689 0 4.882 2.122 4.995 4.783L40 5v30c0 2.689-2.122 4.882-4.783 4.995L35 40H5C2.311 40 .118 37.878.005 35.217L0 35V13.321c0-.472.167-.926.467-1.285l.12-.13L11.911.587c.333-.334.772-.537 1.238-.578L13.326 0H35zm0 2H13.333v6c0 2.946-2.387 5.333-5.333 5.333H2V35c0 1.598 1.249 2.904 2.824 2.995L5 38h30c1.598 0 2.904-1.249 2.995-2.824L38 35V5c0-1.657-1.343-3-3-3zM19.836 12c1.045 0 1.957.196 2.737.587.78.39 1.38.926 1.801 1.607.421.68.632 1.427.632 2.24 0 1.189-.67 2.628-2.012 4.317-.624.766-1.33 1.587-2.117 2.463-.689.766-1.31 1.42-1.861 1.958l-.232.224h6.55V28H14.76v-2.44l.095-.086c.427-.393 1.09-1.08 1.987-2.06.967-1.056 1.832-2.03 2.597-2.921.764-.907 1.376-1.705 1.836-2.393.46-.688.69-1.22.69-1.596 0-.563-.199-1.02-.597-1.372-.397-.352-.908-.528-1.532-.528-.64 0-1.154.176-1.544.528-.346.313-.539.715-.577 1.207l-.007.189v.844h-3.041V16.06l.023-.268c.082-.703.328-1.325.737-1.867.46-.61 1.072-1.083 1.836-1.42.764-.336 1.622-.504 2.573-.504z"/>
</svg>
