<svg xmlns="http://www.w3.org/2000/svg" width="40" height="40" viewBox="0 0 40 40">
    <path fill="#81858B" d="M35 0c2.689 0 4.882 2.122 4.995 4.783L40 5v30c0 2.689-2.122 4.882-4.783 4.995L35 40H5C2.311 40 .118 37.878.005 35.217L0 35V5C0 2.311 2.122.118 4.783.005L5 0h30zm0 2H5C3.402 2 2.096 3.249 2.005 4.824L2 5v30c0 1.598 1.249 2.904 2.824 2.995L5 38h30c1.598 0 2.904-1.249 2.995-2.824L38 35V5c0-1.598-1.249-2.904-2.824-2.995L35 2zm-6.829 19.648c0 2.47 1.876 4.519 4.278 4.764l.235.018.3.008c1.14.03 1.118 1.733-.023 1.733-2.47 0-4.519 1.877-4.764 4.279l-.018.234-.008.3c-.03 1.14-1.733 1.118-1.733-.023 0-2.47-1.876-4.519-4.279-4.764l-.234-.018-.3-.008c-1.14-.03-1.118-1.733.023-1.733 2.565 0 4.66-2.017 4.784-4.551l.006-.24.007-.123c.119-1.03 1.726-.989 1.726.124zm-.832 3.809l-.035-.054-.009.016c-.434.649-.977 1.219-1.603 1.684l-.285.199.15.103c.671.474 1.252 1.067 1.713 1.747l.033.05.101-.15c.415-.587.921-1.106 1.497-1.535l.3-.211-.15-.101c-.67-.474-1.251-1.067-1.712-1.748zM16.495 6.2c0 4.513 3.498 8.229 7.939 8.54l.285.015.353.007c1.145.02 1.13 1.733-.016 1.733-4.512 0-8.228 3.498-8.54 7.939l-.015.285-.006.353c-.021 1.145-1.734 1.13-1.734-.016 0-4.512-3.498-8.228-7.939-8.54l-.284-.015-.354-.006c-1.108-.02-1.129-1.625-.091-1.728l.107-.006.344-.006c4.358-.173 7.878-3.602 8.194-7.921l.017-.29.006-.344.007-.124c.12-1.03 1.727-.989 1.727.124zm-.868 4.76l-.093.184c-.992 1.867-2.53 3.4-4.404 4.392l-.17.086.21.11c1.88 1.004 3.418 2.561 4.402 4.45l.054.107.106-.204c1.004-1.879 2.561-3.417 4.45-4.4l.109-.056-.206-.104c-1.879-1.005-3.417-2.562-4.4-4.452l-.058-.113z"/>
</svg>
