<svg xmlns="http://www.w3.org/2000/svg" width="81" height="81" viewBox="0 0 81 81">
    <g fill="none" fill-rule="evenodd">
        <path fill="#4FCCE9" d="M25.806 51.613c14.253 0 25.807-11.554 25.807-25.807C51.613 11.554 40.059 0 25.806 0 11.554 0 0 11.554 0 25.806 0 40.06 11.554 51.613 25.806 51.613z" opacity=".399"/>
        <path stroke="#424750" stroke-linecap="round" stroke-linejoin="round" stroke-width="1.702" d="M15.83 18.723h19.403c.683 0 1.26.506 1.35 1.182l1.744 13.077c.397 2.982-1.698 5.722-4.68 6.12-.238.031-.479.047-.72.047h-14.79c-3.009 0-5.448-2.439-5.448-5.447 0-.24.016-.481.048-.72l1.744-13.077c.09-.676.667-1.182 1.35-1.182z"/>
        <path stroke="#424750" stroke-linecap="round" stroke-linejoin="round" stroke-width="1.702" d="M32.34 22.809v-4.093c0-3.756-3.048-6.801-6.808-6.801s-6.809 3.045-6.809 6.801v4.093"/>
        <g stroke="#424750" stroke-linecap="round" stroke-linejoin="round" stroke-width="1.739">
            <path d="M6.957 0h34.782c3.842 0 6.957 3.115 6.957 6.957v35.652c0 3.842-3.115 6.956-6.957 6.956H6.957C3.115 49.565 0 46.451 0 42.61v-32.46h0" transform="translate(31 30)"/>
            <path d="M15.652 27.174v-3.478c0-4.803 3.893-8.696 8.696-8.696 4.802 0 8.695 3.893 8.695 8.696v3.478h0M13.043 15L35.652 15" transform="translate(31 30)"/>
            <path d="M24.348 21.957L28.696 32.391 26.957 35.87 21.739 35.87 20 32.391zM24.348 23.696L24.348 30.769M11.304 13.26c.96 0 1.74.78 1.74 1.74s-.78 1.74-1.74 1.74-1.739-.78-1.739-1.74.779-1.74 1.74-1.74zM15.652 27.174c.96 0 1.74.779 1.74 1.739 0 .96-.78 1.74-1.74 1.74s-1.739-.78-1.739-1.74.779-1.74 1.74-1.74zM33.043 27.174c.961 0 1.74.779 1.74 1.739 0 .96-.779 1.74-1.74 1.74-.96 0-1.739-.78-1.739-1.74s.779-1.74 1.74-1.74zM37.391 13.26c.96 0 1.74.78 1.74 1.74s-.78 1.74-1.74 1.74-1.739-.78-1.739-1.74.779-1.74 1.74-1.74z" transform="translate(31 30)"/>
            <path fill="#FFF" d="M24.348 13.26c.96 0 1.739.78 1.739 1.74s-.779 1.74-1.74 1.74c-.96 0-1.738-.78-1.738-1.74s.778-1.74 1.739-1.74z" transform="translate(31 30)"/>
        </g>
    </g>
</svg>
